<svg xmlns="http://www.w3.org/2000/svg" xmlns:xlink="http://www.w3.org/1999/xlink" version="1.1" width="256" height="256" viewBox="0 0 256 256" xml:space="preserve">
<g style="stroke: none; stroke-width: 0; stroke-dasharray: none; stroke-linecap: butt; stroke-linejoin: miter; stroke-miterlimit: 10; fill: none; fill-rule: nonzero; opacity: 1;" transform="translate(1.4065934065934016 1.4065934065934016) scale(2.81 2.81)">
	<path d="M 67.776 56.318 c -0.042 -0.125 -0.094 -0.248 -0.155 -0.365 L 46.349 15.176 c -1.523 -2.932 -4.523 -4.753 -7.828 -4.753 H 11.887 c -4.249 0 -7.705 3.456 -7.705 7.705 v 3.044 c 0 4.249 3.456 7.705 7.705 7.705 h 17.93 c 0.742 0 1.417 0.409 1.761 1.067 l 4.148 7.94 L 15.117 49.081 c -0.677 0.367 -1.146 1.026 -1.273 1.786 c -0.126 0.76 0.105 1.535 0.626 2.103 c 4.531 4.927 8.792 7.379 13.029 7.496 c 0.105 0.003 0.21 0.005 0.315 0.005 c 3.547 0 7.054 -1.662 10.405 -4.924 c 4.689 -4.44 8.872 -4.441 13.561 0 c 5.863 5.554 11.127 5.188 14.513 3.902 C 67.546 58.974 68.2 57.591 67.776 56.318 z" style="stroke: none; stroke-width: 1; stroke-dasharray: none; stroke-linecap: butt; stroke-linejoin: miter; stroke-miterlimit: 10; fill: rgb(0,0,0); fill-rule: nonzero; opacity: 1;" transform=" matrix(1 0 0 1 0 0) " stroke-linecap="round"/>
	<path d="M 74.782 13.402 c -7.726 0 -14.011 6.285 -14.011 14.01 c 0 7.726 6.285 14.011 14.011 14.011 s 14.011 -6.285 14.011 -14.011 C 88.793 19.688 82.508 13.402 74.782 13.402 z" style="stroke: none; stroke-width: 1; stroke-dasharray: none; stroke-linecap: butt; stroke-linejoin: miter; stroke-miterlimit: 10; fill: rgb(0,0,0); fill-rule: nonzero; opacity: 1;" transform=" matrix(1 0 0 1 0 0) " stroke-linecap="round"/>
	<path d="M 89.22 65.917 c -6.592 -6.242 -13.85 -6.243 -20.439 0.001 c -4.689 4.441 -8.871 4.442 -13.561 -0.001 c -6.592 -6.242 -13.849 -6.242 -20.439 0.001 c -4.688 4.443 -8.872 4.443 -13.561 0 c -6.59 -6.244 -13.849 -6.244 -20.438 0 C 0.282 66.39 0 67.046 0 67.732 v 10 c 0 0.999 0.595 1.902 1.512 2.297 c 0.918 0.395 1.982 0.206 2.707 -0.482 c 4.69 -4.44 8.873 -4.441 13.561 0 C 21.076 82.67 24.538 84.23 28 84.23 c 3.462 0 6.925 -1.562 10.219 -4.684 c 4.69 -4.44 8.874 -4.441 13.561 0 c 6.59 6.244 13.848 6.243 20.439 0.001 c 4.689 -4.443 8.871 -4.443 13.561 0 c 0.728 0.687 1.79 0.876 2.708 0.481 C 89.405 79.634 90 78.731 90 77.732 v -10 C 90 67.046 89.718 66.39 89.22 65.917 z" style="stroke: none; stroke-width: 1; stroke-dasharray: none; stroke-linecap: butt; stroke-linejoin: miter; stroke-miterlimit: 10; fill: rgb(0,0,0); fill-rule: nonzero; opacity: 1;" transform=" matrix(1 0 0 1 0 0) " stroke-linecap="round"/>
</g>
</svg>